<svg xmlns="http://www.w3.org/2000/svg" xmlns:xlink="http://www.w3.org/1999/xlink" viewBox="0 0 100 100" version="1.1" xml:space="preserve" fill="rgb(137,207,240)" x="0px" y="0px" fill-rule="evenodd" clip-rule="evenodd" stroke-linejoin="round" stroke-miterlimit="2"><rect x="0" y="0" width="100" height="100" fill="none"/><g><path d="M61.645,6.542c23.985,6.427 38.24,31.117 31.813,55.103c-6.426,23.985 -31.117,38.24 -55.103,31.813c-23.985,-6.427 -38.24,-31.117 -31.813,-55.103c6.427,-23.985 31.117,-38.24 55.103,-31.813Zm1.6,12.817c-0.214,-0.067 -0.429,-0.13 -0.648,-0.189c-8.06,-2.16 -11.501,13.634 -1.673,12.239c3.285,-0.467 4.852,-2.95 5.695,-5.209c0,-0.001 0,-0.001 -0.009,-0.005c0.503,-1.351 0.428,-2.85 -0.209,-4.144c-0.636,-1.293 -1.778,-2.267 -3.156,-2.692Zm-13.118,50.97c-6.565,1.695 -9.892,7.438 -11.49,11.621c-0.464,1.256 -0.339,2.653 0.342,3.805c0.68,1.153 1.843,1.938 3.166,2.138l0.002,0c12.229,1.85 15.684,-19.554 7.98,-17.564Zm-34.059,-31.848c-1.031,0.276 -1.554,1.672 -1.168,3.115c0.387,1.443 1.538,2.391 2.569,2.115c1.031,-0.277 1.554,-1.673 1.167,-3.116c-0.387,-1.443 -1.538,-2.391 -2.568,-2.114Zm-3.536,5.106c-1.971,-0 -3.571,2.24 -3.571,4.999c0,2.76 1.6,5 3.571,5c1.971,-0 3.571,-2.24 3.571,-5c0,-2.759 -1.6,-4.999 -3.571,-4.999Zm73.509,-9.683c0.792,-2.484 0.428,-5.192 -0.993,-7.378c-3.213,-4.709 -7.344,-8.819 -12.249,-11.974c-3.577,-2.302 -7.566,-4.096 -11.893,-5.255c-22.464,-6.019 -45.59,7.332 -51.609,29.797c-0.034,0.127 -0.067,0.254 -0.101,0.381l-0.001,0.007c-0.252,0.983 0.33,1.988 1.309,2.257c0.982,0.27 1.998,-0.299 2.282,-1.276c0.037,-0.134 0.074,-0.269 0.111,-0.405c5.487,-20.478 26.567,-32.648 47.045,-27.161c4.214,1.129 8.076,2.918 11.505,5.227c0.774,0.53 1.198,1.439 1.105,2.373c-0.279,2.494 -0.921,6.316 -2.392,10.258c-2.141,5.74 -6.124,12.049 -14.468,13.234c-19.34,2.746 -30.288,16.326 -35.821,26.268c-2.014,3.648 -1.271,8.201 1.799,11.018c2.113,1.842 4.389,3.53 6.845,4.985c0.374,0.217 0.827,0.249 1.228,0.087c0.401,-0.162 0.704,-0.501 0.821,-0.918l0.003,0.001c-0,0 6.111,-22.535 27.381,-25.555c15.315,-2.174 23.315,-12.976 27.245,-23.511c0.308,-0.826 0.59,-1.647 0.848,-2.46Z"/></g></svg>